<svg width="100" height="100" viewBox="0 0 100 100" fill="none" xmlns="http://www.w3.org/2000/svg" class="h-full w-auto max-w-none md:hidden lg:block">
	<path d="M60.8607 74.8886C63.1089 72.6437 66.7481 72.6496 68.989 74.9017C71.23 77.1538 71.2241 80.7994 68.976 83.0443L58.9929 93.0126C49.7828 102.209 34.7641 102.343 25.3986 93.3224C25.3445 93.2706 21.1743 89.1815 7.41705 75.6915C-1.73529 66.7174 -2.64709 52.3575 5.96552 43.1359L22.0236 25.9417C30.5715 16.7886 46.3283 15.7882 56.1015 23.6918L70.6861 35.4869C73.156 37.4844 73.5418 41.1094 71.5478 43.5836C69.5538 46.0578 65.9351 46.4442 63.4653 44.4468L48.8807 32.6518C43.7695 28.5183 34.8285 29.086 30.4181 33.8087L14.3598 51.0032C10.1669 55.4924 10.6261 62.7245 15.4581 67.4624C25.5603 77.3683 33.3459 85.0024 33.3549 85.011C38.224 89.7007 46.0969 89.6308 50.8776 84.857L60.8607 74.8886Z" fill="#F5F5F5"></path>
	<path fill-rule="evenodd" clip-rule="evenodd" d="M36.609 64.9129C33.4346 64.9129 30.8613 62.3351 30.8613 59.1553C30.8613 55.9754 33.4346 53.3976 36.609 53.3976H78.9977C82.172 53.3976 84.7453 55.9754 84.7453 59.1553C84.7453 62.3351 82.172 64.9129 78.9977 64.9129H36.609Z" fill="#F5F5F5"></path>
	<path fill-rule="evenodd" clip-rule="evenodd" d="M44.5476 1.82415C46.7162 -0.497945 50.3534 -0.61927 52.6715 1.55317C54.9895 3.7256 55.1106 7.36914 52.942 9.69124L14.36 51.0033C10.167 55.4922 10.6262 62.7243 15.4578 67.4623L33.2755 84.9343C35.5439 87.1587 35.5828 90.804 33.3623 93.0764C31.1417 95.3488 27.5028 95.3877 25.2343 93.1633L7.41651 75.6912C-1.7353 66.7166 -2.64709 52.3568 5.9659 43.1359L44.5476 1.82415Z" fill="#F5F5F5"></path>
	
</svg>
