<svg xmlns="http://www.w3.org/2000/svg" width="24" height="24" fill="#000000" viewBox="0 0 24 24">
						<path d="M22.225 0H1.771C.792 0 0 .771 0 1.723v20.555C0 23.229.792 24 1.771 24h20.451C23.208 24 24 23.229 24 22.278V1.723C24 .771 23.208 0 22.225 0zM7.084 20.452H3.558V9h3.526v11.452zM5.321 7.577a2.043 2.043 0 1 1 0-4.086 2.043 2.043 0 0 1 0 4.086zm15.13 12.875h-3.526v-5.568c0-1.328-.027-3.037-1.849-3.037-1.849 0-2.132 1.445-2.132 2.938v5.667h-3.526V9h3.387v1.561h.048c.472-.893 1.627-1.834 3.348-1.834 3.579 0 4.242 2.355 4.242 5.419v6.306z"/>
					</svg>
